<svg width="24" height="24" viewBox="0 0 24 24" fill="none" xmlns="http://www.w3.org/2000/svg">
<mask id="mask0_35_35" style="mask-type:alpha" maskUnits="userSpaceOnUse" x="0" y="0" width="24" height="24">
<rect width="24" height="24" fill="#D9D9D9"/>
</mask>
<g mask="url(#mask0_35_35)">
<path d="M15.325 11.562C15.3916 11.5873 15.4666 11.6 15.55 11.6C15.6333 11.6 15.7126 11.5873 15.788 11.562C15.8626 11.5373 15.925 11.5 15.975 11.45C17.3416 10.3 18.4626 9.20833 19.3379 8.17499C20.2126 7.14166 20.65 6.19999 20.65 5.34999C20.65 4.66666 20.4126 4.08733 19.938 3.61199C19.4626 3.13733 18.8833 2.89999 18.2 2.89999C17.75 2.89999 17.2959 3.02899 16.8379 3.28699C16.3793 3.54566 15.95 3.94999 15.55 4.49999C15.15 3.94999 14.721 3.54566 14.263 3.28699C13.8043 3.02899 13.35 2.89999 12.9 2.89999C12.2166 2.89999 11.6376 3.13733 11.163 3.61199C10.6876 4.08733 10.45 4.66666 10.45 5.34999C10.45 6.19999 10.8876 7.14166 11.763 8.17499C12.6376 9.20833 13.7583 10.3 15.125 11.45C15.1916 11.5 15.2583 11.5373 15.325 11.562Z" fill="#F26767"/>
<path d="M13.275 20.325C13.3583 20.3583 13.4333 20.375 13.5 20.375C13.5666 20.375 13.6416 20.3583 13.725 20.325L19.5 18.55C19.5 18.2 19.4166 17.954 19.25 17.812C19.0833 17.6707 18.9 17.6 18.7 17.6H14.05C13.6333 17.6 13.2416 17.5793 12.875 17.538C12.5083 17.496 12.1333 17.4167 11.75 17.3L9.94998 16.725C9.84998 16.6917 9.77931 16.625 9.73798 16.525C9.69598 16.425 9.69164 16.325 9.72498 16.225C9.75831 16.1417 9.82098 16.0793 9.91298 16.038C10.0043 15.996 10.1 15.9917 10.2 16.025L11.9 16.65C12.2333 16.7667 12.6 16.8373 13 16.862C13.4 16.8873 13.8833 16.9 14.45 16.9H14.7C14.7 16.55 14.6416 16.275 14.525 16.075C14.4083 15.875 14.2333 15.7333 14 15.65L8.27498 13.55C8.22498 13.5333 8.17931 13.5207 8.13798 13.512C8.09598 13.504 8.04998 13.5 7.99998 13.5H5.74998V18.1L13.275 20.325ZM13.1 21.025L5.74998 18.85C5.66664 19.2333 5.48331 19.5377 5.19998 19.763C4.91664 19.9877 4.59998 20.1 4.24998 20.1H3.84998C3.43331 20.1 3.07931 19.9543 2.78798 19.663C2.49598 19.371 2.34998 19.0167 2.34998 18.6V14.3C2.34998 13.8833 2.49598 13.529 2.78798 13.237C3.07931 12.9457 3.43331 12.8 3.84998 12.8H7.97498C8.05831 12.8 8.14598 12.8083 8.23798 12.825C8.32931 12.8417 8.41664 12.8667 8.49998 12.9L14.25 15C14.55 15.1167 14.8166 15.329 15.05 15.637C15.2833 15.9457 15.4 16.3667 15.4 16.9H18.7C19.2333 16.9 19.621 17.0623 19.863 17.387C20.1043 17.7123 20.225 18.1167 20.225 18.6C20.225 18.75 20.1833 18.8833 20.1 19C20.0166 19.1167 19.9 19.2 19.75 19.25L13.975 21.025C13.8416 21.0583 13.7 21.079 13.55 21.087C13.4 21.0957 13.25 21.075 13.1 21.025ZM3.04998 18.6C3.04998 18.8333 3.12498 19.025 3.27498 19.175C3.42498 19.325 3.61664 19.4 3.84998 19.4H4.24998C4.48331 19.4 4.67498 19.3373 4.82498 19.212C4.97498 19.0873 5.04998 18.8833 5.04998 18.6V13.5H3.84998C3.61664 13.5 3.42498 13.575 3.27498 13.725C3.12498 13.875 3.04998 14.0667 3.04998 14.3V18.6Z" fill="white"/>
</g>
</svg>
