<svg width="25" height="24" viewBox="0 0 25 24" fill="none" xmlns="http://www.w3.org/2000/svg">
<mask id="mask0_35_26" style="mask-type:alpha" maskUnits="userSpaceOnUse" x="0" y="0" width="25" height="24">
<rect x="0.478821" width="24" height="24" fill="#D9D9D9"/>
</mask>
<g mask="url(#mask0_35_26)">
<path d="M15.8038 11.562C15.8704 11.5873 15.9454 11.6 16.0288 11.6C16.1121 11.6 16.1914 11.5873 16.2668 11.562C16.3414 11.5373 16.4038 11.5 16.4538 11.45C17.8204 10.3 18.9414 9.20833 19.8168 8.17499C20.6914 7.14166 21.1288 6.19999 21.1288 5.34999C21.1288 4.66666 20.8914 4.08733 20.4168 3.61199C19.9414 3.13733 19.3621 2.89999 18.6788 2.89999C18.2288 2.89999 17.7748 3.02899 17.3168 3.28699C16.8581 3.54566 16.4288 3.94999 16.0288 4.49999C15.6288 3.94999 15.1998 3.54566 14.7418 3.28699C14.2831 3.02899 13.8288 2.89999 13.3788 2.89999C12.6954 2.89999 12.1164 3.13733 11.6418 3.61199C11.1664 4.08733 10.9288 4.66666 10.9288 5.34999C10.9288 6.19999 11.3664 7.14166 12.2418 8.17499C13.1164 9.20833 14.2371 10.3 15.6038 11.45C15.6704 11.5 15.7371 11.5373 15.8038 11.562Z" fill="#F20C0C"/>
<path d="M13.7538 20.325C13.8371 20.3583 13.9121 20.375 13.9788 20.375C14.0455 20.375 14.1205 20.3583 14.2038 20.325L19.9788 18.55C19.9788 18.2 19.8955 17.954 19.7288 17.812C19.5621 17.6707 19.3788 17.6 19.1788 17.6H14.5288C14.1121 17.6 13.7205 17.5793 13.3538 17.538C12.9871 17.496 12.6121 17.4167 12.2288 17.3L10.4288 16.725C10.3288 16.6917 10.2581 16.625 10.2168 16.525C10.1748 16.425 10.1705 16.325 10.2038 16.225C10.2371 16.1417 10.2998 16.0793 10.3918 16.038C10.4831 15.996 10.5788 15.9917 10.6788 16.025L12.3788 16.65C12.7121 16.7667 13.0788 16.8373 13.4788 16.862C13.8788 16.8873 14.3621 16.9 14.9288 16.9H15.1788C15.1788 16.55 15.1205 16.275 15.0038 16.075C14.8871 15.875 14.7121 15.7333 14.4788 15.65L8.7538 13.55C8.7038 13.5333 8.65813 13.5207 8.6168 13.512C8.5748 13.504 8.5288 13.5 8.4788 13.5H6.2288V18.1L13.7538 20.325ZM13.5788 21.025L6.2288 18.85C6.14546 19.2333 5.96213 19.5377 5.6788 19.763C5.39546 19.9877 5.0788 20.1 4.7288 20.1H4.3288C3.91213 20.1 3.55813 19.9543 3.2668 19.663C2.9748 19.371 2.8288 19.0167 2.8288 18.6V14.3C2.8288 13.8833 2.9748 13.529 3.2668 13.237C3.55813 12.9457 3.91213 12.8 4.3288 12.8H8.4538C8.53713 12.8 8.6248 12.8083 8.7168 12.825C8.80813 12.8417 8.89546 12.8667 8.9788 12.9L14.7288 15C15.0288 15.1167 15.2955 15.329 15.5288 15.637C15.7621 15.9457 15.8788 16.3667 15.8788 16.9H19.1788C19.7121 16.9 20.0998 17.0623 20.3418 17.387C20.5831 17.7123 20.7038 18.1167 20.7038 18.6C20.7038 18.75 20.6621 18.8833 20.5788 19C20.4955 19.1167 20.3788 19.2 20.2288 19.25L14.4538 21.025C14.3205 21.0583 14.1788 21.079 14.0288 21.087C13.8788 21.0957 13.7288 21.075 13.5788 21.025ZM3.5288 18.6C3.5288 18.8333 3.6038 19.025 3.7538 19.175C3.9038 19.325 4.09546 19.4 4.3288 19.4H4.7288C4.96213 19.4 5.1538 19.3373 5.3038 19.212C5.4538 19.0873 5.5288 18.8833 5.5288 18.6V13.5H4.3288C4.09546 13.5 3.9038 13.575 3.7538 13.725C3.6038 13.875 3.5288 14.0667 3.5288 14.3V18.6Z" fill="#1E2326"/>
</g>
</svg>

